# xmcd CD database file
#
# Track frame offsets:
#	150
#	8025
#	25278
#	41630
#	55717
#	71898
#	87735
#	106007
#	122045
#	139269
#	161305
#	186883
#	211150
#	235437
#	254207
#	277538
#	301337
#
# Disc length: 4383 seconds
#
# Revision: 7
# Processed by: cddbd v1.5.1PL0 Copyright (c) Steve Scherf et al.
# Submitted via: CDex 1.51
#
DISCID=ec111d11
DTITLE=Van Halen - The Best vol. 1
DYEAR=1996
DGENRE=Hard Rock
TTITLE0=Eruption
TTITLE1=Ain't Talkin' 'Bout Love
TTITLE2=Runnin' With The Devil
TTITLE3=Dance The Night Away
TTITLE4=And The Cradle Will Rock
TTITLE5=Unchained
TTITLE6=Jump
TTITLE7=Panama
TTITLE8=Why Can't This Be Love
TTITLE9=Dreams
TTITLE10=When It's Love
TTITLE11=Poundcake
TTITLE12=Right Now
TTITLE13=Can't Stop Lovin' You
TTITLE14=Humans Being
TTITLE15=Can't Get This Stuff No More
TTITLE16=Me Wise Magic
EXTD=YEAR: 1996
EXTT0=
EXTT1=
EXTT2=
EXTT3=
EXTT4=
EXTT5=
EXTT6=
EXTT7=
EXTT8=
EXTT9=
EXTT10=
EXTT11=
EXTT12=
EXTT13=
EXTT14=
EXTT15=
EXTT16=
PLAYORDER=
